inDegrees=no
num_controls=7
num_derivatives=13
num_iterations=110
num_multipliers=7
num_parameters=0
num_slacks=7
num_states=26
objective=4.847115
objective_accelerations=0.479100
objective_balance=0.018586
objective_effort=0.136859
objective_height=4.114695
objective_ligament=0.097875
solver_duration=1223.060221
status=Solve_Succeeded
success=true
DataType=double
version=3
OpenSimVersion=4.4-2022-07-23-0e9fedc
endheader
time	/jointset/ground_pelvis/pelvis_tilt/value	/jointset/ground_pelvis/pelvis_tx/value	/jointset/ground_pelvis/pelvis_ty/value	/jointset/hip_l/hip_flexion_l/value	/jointset/hip_l/hip_adduction_l/value	/jointset/hip_l/hip_rotation_l/value	/jointset/back/lumbar_extension/value	/jointset/patellofemoral_l/patellar_flexion_l/value	/jointset/knee_l/knee_flexion_l/value	/jointset/knee_l/knee_adduction_l/value	/jointset/knee_l/knee_rotation_l/value	/jointset/ankle_l/ankle_angle_l/value	/jointset/subtalar_l/subtalar_angle_l/value	/jointset/ground_pelvis/pelvis_tilt/speed	/jointset/ground_pelvis/pelvis_tx/speed	/jointset/ground_pelvis/pelvis_ty/speed	/jointset/hip_l/hip_flexion_l/speed	/jointset/hip_l/hip_adduction_l/speed	/jointset/hip_l/hip_rotation_l/speed	/jointset/back/lumbar_extension/speed	/jointset/patellofemoral_l/patellar_flexion_l/speed	/jointset/knee_l/knee_flexion_l/speed	/jointset/knee_l/knee_adduction_l/speed	/jointset/knee_l/knee_rotation_l/speed	/jointset/ankle_l/ankle_angle_l/speed	/jointset/subtalar_l/subtalar_angle_l/speed	/forceset/tau_hip_flexion_l	/forceset/tau_hip_adduction_l	/forceset/tau_hip_rotation_l	/forceset/tau_knee_flexion_l	/forceset/tau_ankle_angle_l	/forceset/tau_subtalar_angle_l	/forceset/tau_lumbar_extension	lambda_cid13_p0	lambda_cid13_p1	lambda_cid13_p2	lambda_cid13_p3	lambda_cid13_p4	lambda_cid13_p5	lambda_cid14_p0	/jointset/ground_pelvis/pelvis_tilt/accel	/jointset/ground_pelvis/pelvis_tx/accel	/jointset/ground_pelvis/pelvis_ty/accel	/jointset/hip_l/hip_flexion_l/accel	/jointset/hip_l/hip_adduction_l/accel	/jointset/hip_l/hip_rotation_l/accel	/jointset/back/lumbar_extension/accel	/jointset/patellofemoral_l/patellar_flexion_l/accel	/jointset/knee_l/knee_flexion_l/accel	/jointset/knee_l/knee_adduction_l/accel	/jointset/knee_l/knee_rotation_l/accel	/jointset/ankle_l/ankle_angle_l/accel	/jointset/subtalar_l/subtalar_angle_l/accel	gamma_cid13_p0	gamma_cid13_p1	gamma_cid13_p2	gamma_cid13_p3	gamma_cid13_p4	gamma_cid13_p5	gamma_cid14_p0
0	0.04596034758536673	0.1089549466264477	0.9028143542822884	0.1266917050730164	-0.3704439086845889	-0.2375318979645483	-0.2144974744115991	0.2051547269256153	0.2051547269256735	-0.1745260596129485	-0.1722518988884823	0.09024399430361882	0.07874506500328431	0	0	0	0	0	0	0	0	0	0	0	0	0	0.1152025393617831	-0.09223412496669142	-0.0140206886070054	-0.2641351260559783	0.2094881625545544	-0.06595961949321844	-0.04505680101562611	37.82342524273943	22.8274256771811	-4.838425644122031	-32.52475301211316	-442.9539358707024	-74.15029325371766	-26.66995330776673	-2.40575041840977	-0.4716797654246555	-0.6600076089837158	8.581911916486462	-0.01420108972896507	2.920096878294375	-3.245643109529905	8.781650047101104	8.781650047100486	2.228474392351655	-0.4276141783221195	3.566430230198363	1.018668016484735	1.3730312240228e-08	5.078634489649819e-07	-1.442755124411624e-07	4.418047395676651e-08	1.403554864307598e-08	2.740665534139579e-07	7.328711696144645e-08
0.01	0.04584598806416843	0.10893144109457	0.9027823579750937	0.1271086157490317	-0.3704437176437946	-0.2373788687862294	-0.2146625698400525	0.2055828266828663	0.2055828266829031	-0.1744161898447606	-0.1722621642014343	0.09041845130327467	0.07879572800955892	-0.02277288017973154	-0.004713610431219884	-0.006380219976243913	0.0830440097058785	2.632521460833554e-05	0.03050522422202077	-0.03278552943318126	0.08521536093898469	0.08521536093897769	0.0218319030901937	-0.001999123426656712	0.03467690998124062	0.01005851388782497	0.1116117053590562	-0.09955315603835559	-0.01299813042015538	-0.2584448947379976	0.19836811297614	-0.05620081529087472	-0.04239888352967721	34.76767047895812	18.7776107781675	-3.796865257256869	-30.4370653608331	-443.5324244780495	-82.10397814832349	-26.66922297209638	-2.198201614338955	-0.4730684501543801	-0.6241701656594255	8.114927729849882	0.009216459449937375	3.100679391776814	-3.259974423802182	8.330775881636029	8.330775881635907	2.139307856210314	-0.07800517465953127	3.386162551563752	0.988267132648234	1.5096563607883e-08	7.355027585204624e-07	-1.473831584051856e-07	7.003482024934699e-08	-1.09418497755443e-07	3.137212364748725e-07	1.077908851914127e-07
0.02	0.04550687078190824	0.108860426104748	0.9026871312733934	0.1283458229686162	-0.370443629924376	-0.2369237985262097	-0.2151485138755491	0.2068509394024244	0.2068509394024282	-0.17409224912801	-0.172290809498536	0.09093324563663398	0.07894474096625319	-0.04495155222304521	-0.009501891588865453	-0.01264607890108369	0.16405930870022	-2.066427504165452e-05	0.06040821634890065	-0.06416972141014844	0.1680025924515212	0.1680025924515269	0.04281418973467441	-0.003675996846182119	0.06806746674157074	0.01966999008432756	0.1080208713567493	-0.1068721871099337	-0.01197557223367772	-0.2527546634196574	0.18724806339784	-0.04644201108839931	-0.03974096604354568	31.75241106835536	14.73378770342367	-2.771204912171529	-28.41440797405116	-443.405167051772	-89.8934966042857	-26.66683497405977	-2.286908791127704	-0.4866139107083356	-0.6371353987029714	8.176169774178666	-0.02886403058080098	2.799650459266329	-2.965375618287841	8.296024161811177	8.296024161814497	2.058551103208657	-0.3631641768956019	3.309159586017885	0.9292604782205552	1.6462814975538e-08	9.631420680759429e-07	-1.504908043692087e-07	9.588916654192748e-08	-2.32872544153962e-07	3.533759195357872e-07	1.42294653421379e-07
0.03	0.04494858584216034	0.1087412146924282	0.9025296173393063	0.1303835956053241	-0.3704443336064753	-0.2361744615795094	-0.2159410986971886	0.2089354607897638	0.2089354607897646	-0.1735625869033592	-0.1723362959565879	0.09177574759774934	0.07918780892206638	-0.0666116755599295	-0.01434594353570814	-0.0188523829469462	0.243158587165812	-0.0001268371388402477	0.08932740165578154	-0.09412544086297969	0.2485084692766436	0.2485084692766525	0.06297122859031098	-0.005380236567934019	0.100229104702307	0.02888166863523736	0.1044096861056	-0.1016786620486821	-0.01101856008554743	-0.2477012683888759	0.1802529135444378	-0.04808308242708483	-0.03708883553050905	29.38952503902598	15.69544019337403	-2.736289201600686	-26.58865347662897	-443.4928713476168	-87.12681079454778	-26.66258754183337	-2.091491098155405	-0.4841144495387997	-0.6117762356594281	7.726316426430285	-0.002627955670752709	2.918336745041743	-2.977399802679171	7.868858483307061	7.868858483305718	1.972371370871415	-0.06794102557510633	3.139124676908923	0.9076971310787597	1.480886999997884e-08	1.045065580609848e-06	-1.415774429777651e-07	1.084406679665782e-07	-3.243097991619837e-07	3.532882447565708e-07	1.559029022459249e-07
0.04	0.04417651427045542	0.1085734000380714	0.9023101606991342	0.1332022629354623	-0.3704463258254785	-0.2351398759440209	-0.2170265866521311	0.2118132387534075	0.2118132387534115	-0.1728357360713518	-0.1723976022430661	0.09293375769363689	0.07952110878089758	-0.08770887862444593	-0.01922253999629046	-0.02503462011810589	0.3202382473786801	-0.0002783716583004152	0.1174579541083826	-0.1227503480719267	0.3266539077195301	0.3266539077195256	0.08225191121115102	-0.006839962520070737	0.1311690936953538	0.03771637068825018	0.1007985008544029	-0.09648513698742398	-0.01006154793708307	-0.2426478733581865	0.1732577636910054	-0.04972415376577684	-0.03443670501750663	27.06348447724664	16.66532491488378	-2.719459606483433	-24.8186213284	-442.9270159576504	-84.20100767276023	-26.65599412378177	-2.174324736655577	-0.4931228134548575	-0.6323220237624907	7.772246123633492	-0.03793636171329854	2.641923888410496	-2.699213169511718	7.823936485363721	7.823936485363697	1.883279856248936	-0.3142614229723081	3.064829792481538	0.8538651786414291	1.309265293486887e-08	1.123984643720627e-06	-1.324162257645594e-07	1.207178839300344e-07	-4.150869141413355e-07	3.523811399187949e-07	1.690803156188127e-07
0.05	0.04319595349352965	0.1083566462140367	0.9020288282100946	0.1367822317842261	-0.3704500951424953	-0.2338294320840358	-0.2183913874236061	0.2154613015428637	0.2154613015428645	-0.1719204747412016	-0.172473811156821	0.09439517571574974	0.07994091301731635	-0.1083064183866066	-0.02413363727393364	-0.03123847694382649	0.395418320246271	-0.0004744368392674647	0.1445061561989335	-0.1499978175788823	0.4025664912920812	0.4025664912920721	0.1006533383785621	-0.008337678922016584	0.1609117156011162	0.04619352388907697	0.09693401223681532	-0.09405594975866444	-0.008948861182488698	-0.2377243951239537	0.1653293459825996	-0.04843633870069246	-0.03163082757345484	24.59287496826155	16.36172737030131	-2.469011767519127	-23.02861838436234	-442.6220610951185	-83.92039402475902	-26.64655308584363	-1.987925911946037	-0.490890807848283	-0.615491151231533	7.340313900822591	-0.0104287445666547	2.717621029566823	-2.705715546699281	7.416061537975273	7.416061537974804	1.796696334994351	-0.05795137691773081	2.898597774208564	0.836835683822781	1.236568167994117e-08	1.132502645817042e-06	-1.410403239598382e-07	1.254152783891508e-07	-4.686940225747049e-07	3.582085395944048e-07	1.737186556699119e-07
0.06	0.04201232585583942	0.1080906238926441	0.901685242424947	0.1411038865682114	-0.3704558225409709	-0.2322522356711285	-0.2200223032312277	0.2198567186169981	0.2198567186169988	-0.1708255747018255	-0.1725630821602196	0.09614794383383722	0.08044392784434599	-0.1283222507869368	-0.02907623946789577	-0.03748527933973031	0.468575434413915	-0.0006699879513801196	0.1708084646970736	-0.1759733553024811	0.4761247646556075	0.4761247646555942	0.1181796530662583	-0.009452380448428757	0.1894391128902921	0.05435848881068528	0.09306952361935443	-0.09162676252986035	-0.007836174427848255	-0.2328009168896295	0.1574009282742287	-0.04714852363555005	-0.02882495012936302	22.15608584405722	16.06356378575396	-2.232402242854261	-21.28830120848274	-441.7259264061173	-83.4989097836706	-26.63347719739736	-2.057983264290862	-0.499423796717297	-0.6409111377992125	7.367654383643739	-0.03783354794259348	2.492745169928478	-2.444826812841076	7.353074443558518	7.353074443558524	1.70825736030556	-0.2376584478653115	2.821784869165739	0.7914275227979977	1.168036288017904e-08	1.138056392712853e-06	-1.504132775407374e-07	1.297935224691371e-07	-5.207360781008751e-07	3.643194973547886e-07	1.779974557916727e-07
